<mxfile host="app.diagrams.net" modified="2022-12-23T07:12:01.157Z" agent="5.0 (Windows NT 10.0; Win64; x64) AppleWebKit/537.36 (KHTML, like Gecko) Chrome/108.0.0.0 Safari/537.36 Edg/108.0.1462.54" version="20.7.4" etag="fsZNBRodDdVfdhcZHsqu" type="github">
  <diagram id="lu67rxway3D1fgiwn8DX" name="Page-1">
    <mxGraphModel dx="1431" dy="819" grid="1" gridSize="10" guides="1" tooltips="1" connect="1" arrows="1" fold="1" page="1" pageScale="1" pageWidth="850" pageHeight="1100" math="0" shadow="0">
      <root>
        <mxCell id="0" />
        <mxCell id="1" parent="0" />
        <mxCell id="kpfpR7843MxM0rUKFRxI-27" value="" style="edgeStyle=orthogonalEdgeStyle;rounded=0;orthogonalLoop=1;jettySize=auto;html=1;" edge="1" parent="1" source="kpfpR7843MxM0rUKFRxI-2" target="kpfpR7843MxM0rUKFRxI-26">
          <mxGeometry relative="1" as="geometry" />
        </mxCell>
        <mxCell id="kpfpR7843MxM0rUKFRxI-2" value="START&lt;br&gt;get_sum_yearly_by_sector(sector: str, start_yr: int = year_range[0], end_yr: int = year_range[1])" style="ellipse;whiteSpace=wrap;html=1;rounded=0;" vertex="1" parent="1">
          <mxGeometry x="120" width="305.44" height="70" as="geometry" />
        </mxCell>
        <mxCell id="kpfpR7843MxM0rUKFRxI-7" value="" style="edgeStyle=orthogonalEdgeStyle;rounded=0;orthogonalLoop=1;jettySize=auto;html=1;" edge="1" parent="1" source="kpfpR7843MxM0rUKFRxI-4" target="kpfpR7843MxM0rUKFRxI-6">
          <mxGeometry relative="1" as="geometry" />
        </mxCell>
        <mxCell id="kpfpR7843MxM0rUKFRxI-4" value="period_data = &lt;br&gt;row_data[start_yr - year_range[0]:end_yr - year_range[0] + 1]" style="rounded=0;whiteSpace=wrap;html=1;" vertex="1" parent="1">
          <mxGeometry x="104.76000000000002" y="210" width="335.92" height="50" as="geometry" />
        </mxCell>
        <mxCell id="kpfpR7843MxM0rUKFRxI-25" value="" style="edgeStyle=orthogonalEdgeStyle;rounded=0;orthogonalLoop=1;jettySize=auto;html=1;" edge="1" parent="1" source="kpfpR7843MxM0rUKFRxI-6" target="kpfpR7843MxM0rUKFRxI-10">
          <mxGeometry relative="1" as="geometry" />
        </mxCell>
        <mxCell id="kpfpR7843MxM0rUKFRxI-50" style="edgeStyle=orthogonalEdgeStyle;rounded=0;orthogonalLoop=1;jettySize=auto;html=1;exitX=0.5;exitY=1;exitDx=0;exitDy=0;entryX=0.5;entryY=0;entryDx=0;entryDy=0;" edge="1" parent="1" source="kpfpR7843MxM0rUKFRxI-6" target="kpfpR7843MxM0rUKFRxI-38">
          <mxGeometry relative="1" as="geometry" />
        </mxCell>
        <mxCell id="kpfpR7843MxM0rUKFRxI-6" value="sector == &quot;private&quot;&lt;br&gt;?" style="rhombus;whiteSpace=wrap;html=1;" vertex="1" parent="1">
          <mxGeometry x="204.07999999999998" y="300" width="137.28" height="80" as="geometry" />
        </mxCell>
        <mxCell id="kpfpR7843MxM0rUKFRxI-8" value="" style="rounded=0;whiteSpace=wrap;html=1;glass=0;fillColor=none;dashed=1;" vertex="1" parent="1">
          <mxGeometry x="370" y="300" width="570" height="310" as="geometry" />
        </mxCell>
        <mxCell id="kpfpR7843MxM0rUKFRxI-9" value="" style="edgeStyle=orthogonalEdgeStyle;rounded=0;orthogonalLoop=1;jettySize=auto;html=1;" edge="1" parent="1" source="kpfpR7843MxM0rUKFRxI-10" target="kpfpR7843MxM0rUKFRxI-13">
          <mxGeometry relative="1" as="geometry" />
        </mxCell>
        <mxCell id="kpfpR7843MxM0rUKFRxI-10" value="for each row in period_data" style="rounded=0;whiteSpace=wrap;html=1;" vertex="1" parent="1">
          <mxGeometry x="405.87" y="320" width="165" height="40" as="geometry" />
        </mxCell>
        <mxCell id="kpfpR7843MxM0rUKFRxI-31" value="" style="edgeStyle=orthogonalEdgeStyle;rounded=0;orthogonalLoop=1;jettySize=auto;html=1;" edge="1" parent="1" source="kpfpR7843MxM0rUKFRxI-13" target="kpfpR7843MxM0rUKFRxI-30">
          <mxGeometry relative="1" as="geometry" />
        </mxCell>
        <mxCell id="kpfpR7843MxM0rUKFRxI-33" value="" style="edgeStyle=orthogonalEdgeStyle;rounded=0;orthogonalLoop=1;jettySize=auto;html=1;" edge="1" parent="1" source="kpfpR7843MxM0rUKFRxI-13">
          <mxGeometry relative="1" as="geometry">
            <mxPoint x="488.3699999999999" y="520" as="targetPoint" />
          </mxGeometry>
        </mxCell>
        <mxCell id="kpfpR7843MxM0rUKFRxI-13" value="row in sequence&lt;br&gt;?" style="rhombus;whiteSpace=wrap;html=1;" vertex="1" parent="1">
          <mxGeometry x="448.37" y="400" width="80" height="80" as="geometry" />
        </mxCell>
        <mxCell id="kpfpR7843MxM0rUKFRxI-17" value="True" style="text;html=1;strokeColor=none;fillColor=none;align=center;verticalAlign=middle;whiteSpace=wrap;rounded=0;" vertex="1" parent="1">
          <mxGeometry x="510" y="410" width="60" height="30" as="geometry" />
        </mxCell>
        <mxCell id="kpfpR7843MxM0rUKFRxI-22" value="False" style="text;html=1;strokeColor=none;fillColor=none;align=center;verticalAlign=middle;whiteSpace=wrap;rounded=0;" vertex="1" parent="1">
          <mxGeometry x="479.99999999999994" y="480" width="60" height="30" as="geometry" />
        </mxCell>
        <mxCell id="kpfpR7843MxM0rUKFRxI-24" value="&lt;font style=&quot;font-size: 10px;&quot;&gt;return [sum(row[sector_indices[0][0]:sector_indices[0][-1] + 1]) for row in period_data]&lt;/font&gt;" style="text;html=1;strokeColor=none;fillColor=none;align=center;verticalAlign=middle;whiteSpace=wrap;rounded=0;glass=0;dashed=1;" vertex="1" parent="1">
          <mxGeometry x="370" y="604" width="380.93" height="30" as="geometry" />
        </mxCell>
        <mxCell id="kpfpR7843MxM0rUKFRxI-28" value="" style="edgeStyle=orthogonalEdgeStyle;rounded=0;orthogonalLoop=1;jettySize=auto;html=1;" edge="1" parent="1" source="kpfpR7843MxM0rUKFRxI-26" target="kpfpR7843MxM0rUKFRxI-4">
          <mxGeometry relative="1" as="geometry" />
        </mxCell>
        <mxCell id="kpfpR7843MxM0rUKFRxI-26" value="Initialise period_data" style="rounded=0;whiteSpace=wrap;html=1;" vertex="1" parent="1">
          <mxGeometry x="212.72" y="110" width="120" height="60" as="geometry" />
        </mxCell>
        <mxCell id="kpfpR7843MxM0rUKFRxI-51" style="edgeStyle=orthogonalEdgeStyle;rounded=0;orthogonalLoop=1;jettySize=auto;html=1;exitX=1;exitY=0.5;exitDx=0;exitDy=0;" edge="1" parent="1" source="kpfpR7843MxM0rUKFRxI-30">
          <mxGeometry relative="1" as="geometry">
            <mxPoint x="488" y="380" as="targetPoint" />
            <Array as="points">
              <mxPoint x="930" y="440" />
            </Array>
          </mxGeometry>
        </mxCell>
        <mxCell id="kpfpR7843MxM0rUKFRxI-30" value="Add sum(row[sector_indices[0][0]:sector_indices[0][-1] + 1])&lt;br&gt;to temp_list1" style="rounded=0;whiteSpace=wrap;html=1;" vertex="1" parent="1">
          <mxGeometry x="570" y="410" width="320" height="60" as="geometry" />
        </mxCell>
        <mxCell id="kpfpR7843MxM0rUKFRxI-36" value="Return&lt;br&gt;temp_list1" style="ellipse;whiteSpace=wrap;html=1;" vertex="1" parent="1">
          <mxGeometry x="428.37" y="520" width="120" height="80" as="geometry" />
        </mxCell>
        <mxCell id="kpfpR7843MxM0rUKFRxI-37" value="" style="edgeStyle=orthogonalEdgeStyle;rounded=0;orthogonalLoop=1;jettySize=auto;html=1;" edge="1" parent="1" source="kpfpR7843MxM0rUKFRxI-38" target="kpfpR7843MxM0rUKFRxI-41">
          <mxGeometry relative="1" as="geometry" />
        </mxCell>
        <mxCell id="kpfpR7843MxM0rUKFRxI-60" style="edgeStyle=orthogonalEdgeStyle;rounded=0;orthogonalLoop=1;jettySize=auto;html=1;exitX=0.5;exitY=1;exitDx=0;exitDy=0;entryX=0.5;entryY=0;entryDx=0;entryDy=0;" edge="1" parent="1" source="kpfpR7843MxM0rUKFRxI-38" target="kpfpR7843MxM0rUKFRxI-59">
          <mxGeometry relative="1" as="geometry" />
        </mxCell>
        <mxCell id="kpfpR7843MxM0rUKFRxI-38" value="sector == &quot;public&quot;&lt;br&gt;?" style="rhombus;whiteSpace=wrap;html=1;" vertex="1" parent="1">
          <mxGeometry x="204.07999999999998" y="634" width="137.28" height="80" as="geometry" />
        </mxCell>
        <mxCell id="kpfpR7843MxM0rUKFRxI-39" value="" style="rounded=0;whiteSpace=wrap;html=1;glass=0;fillColor=none;dashed=1;" vertex="1" parent="1">
          <mxGeometry x="370" y="634" width="570" height="310" as="geometry" />
        </mxCell>
        <mxCell id="kpfpR7843MxM0rUKFRxI-40" value="" style="edgeStyle=orthogonalEdgeStyle;rounded=0;orthogonalLoop=1;jettySize=auto;html=1;" edge="1" parent="1" source="kpfpR7843MxM0rUKFRxI-41" target="kpfpR7843MxM0rUKFRxI-44">
          <mxGeometry relative="1" as="geometry" />
        </mxCell>
        <mxCell id="kpfpR7843MxM0rUKFRxI-41" value="for each row in period_data" style="rounded=0;whiteSpace=wrap;html=1;" vertex="1" parent="1">
          <mxGeometry x="405.87" y="654" width="165" height="40" as="geometry" />
        </mxCell>
        <mxCell id="kpfpR7843MxM0rUKFRxI-42" value="" style="edgeStyle=orthogonalEdgeStyle;rounded=0;orthogonalLoop=1;jettySize=auto;html=1;" edge="1" parent="1" source="kpfpR7843MxM0rUKFRxI-44" target="kpfpR7843MxM0rUKFRxI-48">
          <mxGeometry relative="1" as="geometry" />
        </mxCell>
        <mxCell id="kpfpR7843MxM0rUKFRxI-43" value="" style="edgeStyle=orthogonalEdgeStyle;rounded=0;orthogonalLoop=1;jettySize=auto;html=1;" edge="1" parent="1" source="kpfpR7843MxM0rUKFRxI-44">
          <mxGeometry relative="1" as="geometry">
            <mxPoint x="488.3699999999999" y="854" as="targetPoint" />
          </mxGeometry>
        </mxCell>
        <mxCell id="kpfpR7843MxM0rUKFRxI-44" value="row in sequence&lt;br&gt;?" style="rhombus;whiteSpace=wrap;html=1;" vertex="1" parent="1">
          <mxGeometry x="448.37" y="734" width="80" height="80" as="geometry" />
        </mxCell>
        <mxCell id="kpfpR7843MxM0rUKFRxI-45" value="True" style="text;html=1;strokeColor=none;fillColor=none;align=center;verticalAlign=middle;whiteSpace=wrap;rounded=0;" vertex="1" parent="1">
          <mxGeometry x="510.87" y="744" width="60" height="30" as="geometry" />
        </mxCell>
        <mxCell id="kpfpR7843MxM0rUKFRxI-46" value="False" style="text;html=1;strokeColor=none;fillColor=none;align=center;verticalAlign=middle;whiteSpace=wrap;rounded=0;" vertex="1" parent="1">
          <mxGeometry x="479.99999999999994" y="814" width="60" height="30" as="geometry" />
        </mxCell>
        <mxCell id="kpfpR7843MxM0rUKFRxI-47" value="&lt;font style=&quot;font-size: 10px;&quot;&gt;return [sum(row[sector_indices[1][0]:sector_indices[1][-1] + 1]) for row in period_data]&lt;/font&gt;" style="text;html=1;strokeColor=none;fillColor=none;align=center;verticalAlign=middle;whiteSpace=wrap;rounded=0;glass=0;dashed=1;" vertex="1" parent="1">
          <mxGeometry x="370" y="938" width="380.93" height="30" as="geometry" />
        </mxCell>
        <mxCell id="kpfpR7843MxM0rUKFRxI-48" value="Add sum(row[sector_indices[1][0]:sector_indices[1][-1] + 1])&lt;br&gt;to temp_list2" style="rounded=0;whiteSpace=wrap;html=1;" vertex="1" parent="1">
          <mxGeometry x="570" y="744" width="320" height="60" as="geometry" />
        </mxCell>
        <mxCell id="kpfpR7843MxM0rUKFRxI-49" value="Return&lt;br&gt;temp_list2" style="ellipse;whiteSpace=wrap;html=1;" vertex="1" parent="1">
          <mxGeometry x="428.37" y="854" width="120" height="80" as="geometry" />
        </mxCell>
        <mxCell id="kpfpR7843MxM0rUKFRxI-52" style="edgeStyle=orthogonalEdgeStyle;rounded=0;orthogonalLoop=1;jettySize=auto;html=1;exitX=1;exitY=0.5;exitDx=0;exitDy=0;" edge="1" parent="1">
          <mxGeometry relative="1" as="geometry">
            <mxPoint x="890" y="774" as="sourcePoint" />
            <mxPoint x="488" y="714" as="targetPoint" />
            <Array as="points">
              <mxPoint x="930" y="774" />
            </Array>
          </mxGeometry>
        </mxCell>
        <mxCell id="kpfpR7843MxM0rUKFRxI-54" value="True" style="text;html=1;strokeColor=none;fillColor=none;align=center;verticalAlign=middle;whiteSpace=wrap;rounded=0;" vertex="1" parent="1">
          <mxGeometry x="320" y="310" width="60" height="30" as="geometry" />
        </mxCell>
        <mxCell id="kpfpR7843MxM0rUKFRxI-55" value="True" style="text;html=1;strokeColor=none;fillColor=none;align=center;verticalAlign=middle;whiteSpace=wrap;rounded=0;" vertex="1" parent="1">
          <mxGeometry x="320" y="643" width="60" height="30" as="geometry" />
        </mxCell>
        <mxCell id="kpfpR7843MxM0rUKFRxI-56" value="False" style="text;html=1;strokeColor=none;fillColor=none;align=center;verticalAlign=middle;whiteSpace=wrap;rounded=0;" vertex="1" parent="1">
          <mxGeometry x="269.99999999999994" y="380" width="60" height="30" as="geometry" />
        </mxCell>
        <mxCell id="kpfpR7843MxM0rUKFRxI-57" value="False" style="text;html=1;strokeColor=none;fillColor=none;align=center;verticalAlign=middle;whiteSpace=wrap;rounded=0;" vertex="1" parent="1">
          <mxGeometry x="269.99999999999994" y="714" width="60" height="30" as="geometry" />
        </mxCell>
        <mxCell id="kpfpR7843MxM0rUKFRxI-62" value="" style="edgeStyle=orthogonalEdgeStyle;rounded=0;orthogonalLoop=1;jettySize=auto;html=1;" edge="1" parent="1" source="kpfpR7843MxM0rUKFRxI-59" target="kpfpR7843MxM0rUKFRxI-61">
          <mxGeometry relative="1" as="geometry" />
        </mxCell>
        <mxCell id="kpfpR7843MxM0rUKFRxI-59" value="raise Exception(&quot;Invalid sector passed into function call!&quot;)" style="rounded=0;whiteSpace=wrap;html=1;" vertex="1" parent="1">
          <mxGeometry x="119.08" y="968" width="307.28" height="60" as="geometry" />
        </mxCell>
        <mxCell id="kpfpR7843MxM0rUKFRxI-61" value="END&lt;br&gt;get_sum_yearly_by_sector(sector: str, start_yr: int = year_range[0], end_yr: int = year_range[1])" style="ellipse;whiteSpace=wrap;html=1;rounded=0;" vertex="1" parent="1">
          <mxGeometry x="120" y="1070" width="305.44" height="70" as="geometry" />
        </mxCell>
      </root>
    </mxGraphModel>
  </diagram>
</mxfile>
